<?xml version="1.0" standalone="no"?><!DOCTYPE svg PUBLIC "-//W3C//DTD SVG 1.1//EN" "http://www.w3.org/Graphics/SVG/1.1/DTD/svg11.dtd"><svg t="1758780186915" class="icon" viewBox="0 0 1228 1024" version="1.1" xmlns="http://www.w3.org/2000/svg" p-id="5876" xmlns:xlink="http://www.w3.org/1999/xlink" width="239.84375" height="200"><path d="M1227.91936 558.8992c-2.62144 8.62208-10.58816 14.5408-19.59936 14.5408H807.6288l-114.2784 122.88H798.72a20.48 20.48 0 1 1 0 40.96h-143.4624l-76.1856 81.92H675.84a20.48 20.48 0 1 1 0 40.96h-134.8608l-127.26272 136.82688C386.72384 1024 363.52 1024 348.16 1024h-61.44c-22.58944 0-40.96-18.37056-40.96-40.96V552.96a20.48 20.48 0 0 1 20.48-20.48h430.08a20.48 20.48 0 1 1 0 40.96H286.72v409.6h61.44c12.53376 0 21.6064 0 36.08576-14.47936l399.48288-429.54752c3.87072-4.15744 9.3184-6.53312 14.99136-6.53312h341.95456l-128.04096-85.36064a20.5824 20.5824 0 0 1-8.04864-10.56768C975.1552 348.30336 896.7168 307.2 757.76 307.2c-58.12224 0-102.62528 6.8608-129.26976 12.43136 70.06208 87.67488 146.41152 89.92768 149.87264 89.96864H942.08a20.48 20.48 0 1 1 0 40.96h-163.84c-4.48512 0-108.1344-1.78176-193.82272-121.52832l-315.63776 39.44448a20.48 20.48 0 0 1-18.08384-6.98368l-122.88-143.36C127.1808 217.35424 116.85888 204.8 102.4 204.8H47.63648l74.4448 260.608A20.41856 20.41856 0 0 1 102.4 491.52H40.96v40.96h143.36a20.48 20.48 0 0 1 0 40.96H20.48a20.48 20.48 0 0 1-20.48-20.48v-81.92a20.48 20.48 0 0 1 20.48-20.48h54.76352L0.79872 189.952A20.41856 20.41856 0 0 1 20.48 163.84h81.92c34.26304 0 54.94784 25.55904 57.18016 28.4672l115.03616 134.16448 314.90048-39.36256C601.4976 283.42272 662.4256 266.24 757.76 266.24c56.832 0 228.1472 0 283.29984 150.58944l178.62656 119.0912a20.48 20.48 0 0 1 8.23296 22.97856zM266.24 245.76a20.48 20.48 0 0 0 20.48-20.48V40.96h51.83488c12.55424 0 21.6064 0 36.08576 14.47936l61.44 61.41952v0.02048l122.88 122.88c3.82976 3.82976 9.05216 6.00064 14.47936 6.00064h143.36a20.48 20.48 0 1 0 0-40.96h-134.88128l-81.92-81.92H593.92a20.48 20.48 0 0 0 0-40.96h-134.88128l-55.43936-55.43936C377.11872 0 353.91488 0 338.55488 0H286.72c-22.58944 0-40.96 18.37056-40.96 40.96v184.32a20.48 20.48 0 0 0 20.48 20.48z" fill="#231F1F" p-id="5877"></path></svg>