<?xml version="1.0" standalone="no"?><!DOCTYPE svg PUBLIC "-//W3C//DTD SVG 1.1//EN" "http://www.w3.org/Graphics/SVG/1.1/DTD/svg11.dtd"><svg t="1758780606029" class="icon" viewBox="0 0 1024 1024" version="1.1" xmlns="http://www.w3.org/2000/svg" p-id="23694" xmlns:xlink="http://www.w3.org/1999/xlink" width="200" height="200"><path d="M360.7 418.4l87.9 87.9c-65.9 66.6-136.8 138.4-153.1 155.4-13.8 11.8-15.5 32.6-3.7 46.4l0.1 0.1c10.3 15.7 31.5 20.1 47.2 9.8 0.6-0.4 1.2-0.8 1.7-1.2 2.5-1.8 4.6-3.9 6.5-6.2 16.1-16.1 86.3-87.1 151.9-153.6l48.2 48.2c-15.5 20.6-13.5 49.5 4.8 67.8l92.5 92.5c20.2 20.2 53.1 20.2 73.3 0l24.6-24.6c20.2-20.2 20.2-53.1 0-73.3l-92.5-92.5c-18.3-18.3-47.2-20.3-67.8-4.8L533.9 522c41-41.6 75.4-76.5 86.1-87.5h-0.6c4.1-6.2 12.2-8.5 19-5.3 45.8 17.4 97.6 0.9 124.8-39.8 18.5-25.1 23.7-57.6 13.9-87.2-13.9 11.9-25.8 25.5-38.3 38-20.3 21.9-54.5 23.2-76.4 2.9-21.6-20-23.2-53.6-3.7-75.6l4.5-2.1c12.8-12.5 25.8-24.6 38.6-36.8l-2.7-4.5c-36.6-8.8-75.1 2.5-101.1 29.7-28.8 28.3-38.2 71-24 108.8 3.9 8 1.5 17.6-5.6 22.8-10.6 10.6-44.5 44.8-85.2 85.8l-87.7-87.7 20.3-20.3L294.4 265 242 317.4l98.4 121.4 20.3-20.4z m-39.2 281.3c-8.9-0.3-16-7.4-16.3-16.3-0.4-9.4 6.9-17.4 16.3-17.8 9.4-0.4 17.4 6.9 17.8 16.3 0.4 9.4-6.9 17.4-16.3 17.8h-1.5z" fill="#515151" p-id="23695"></path><path d="M102 101v821.6h821.6V101H102z m762.6 762.6H160.9V160h703.6v703.6z" fill="#515151" p-id="23696"></path></svg>