<?xml version="1.0" standalone="no"?><!DOCTYPE svg PUBLIC "-//W3C//DTD SVG 1.1//EN" "http://www.w3.org/Graphics/SVG/1.1/DTD/svg11.dtd"><svg t="1758780528169" class="icon" viewBox="0 0 1024 1024" version="1.1" xmlns="http://www.w3.org/2000/svg" p-id="22667" xmlns:xlink="http://www.w3.org/1999/xlink" width="200" height="200"><path d="M363.52 572.928c18.432 20.48 44.032 32.768 71.168 34.304h0.512c56.832 3.072 105.984-40.448 109.056-97.28 1.536-27.648-7.68-54.272-26.112-74.752-37.376-41.984-322.56-207.872-325.12-209.408l-1.536-1.024 0.512 1.536c1.024 2.56 133.632 304.64 171.52 346.624zM579.584 839.168c-2.048-5.632-8.192-8.192-13.824-6.144l-15.872-49.152c-2.048-6.656-8.192-11.264-15.36-10.24-8.704 1.024-14.336 9.728-11.776 17.92l15.872 49.664c-29.696 7.68-60.416 11.264-92.16 10.752l2.048-49.152c0-6.144-3.072-11.776-8.704-13.824-9.216-3.584-18.432 3.072-18.944 12.288l-2.048 49.152c-11.776-1.024-23.552-3.072-35.84-5.632-18.432-3.584-36.352-9.216-53.76-15.872l17.92-43.008c3.072-7.168-0.512-15.36-7.68-17.92 0-7.68-10.752-10.24-13.824-2.56l-22.016 53.248c-27.648-13.312-53.248-30.208-76.288-49.664l29.696-32.768c5.12-5.632 4.608-14.336-1.024-19.456 0-7.168-9.216-10.752-13.824-5.632l-35.328 38.4c-20.992-21.504-39.424-45.568-54.272-71.68l36.352-18.944c6.144-3.072 9.728-10.24 7.68-16.896-2.56-8.704-12.288-12.288-19.968-8.192l-36.864 19.456c-12.8-27.136-21.504-55.808-27.136-85.504l39.936-5.12c6.656-1.024 12.288-6.144 12.8-13.312 0.512-8.704-7.168-15.872-15.872-14.336l-40.448 5.632c-2.56-29.184-1.536-58.88 3.072-89.088l38.912 8.704c6.656 1.536 13.824-1.536 16.384-8.192 3.584-8.192-1.536-17.408-9.728-18.944l-43.52-9.728c-3.584-12.8-14.848-23.04-29.696-23.552-15.872-0.512-29.696 11.264-32.768 27.136C46.08 453.632 43.52 480.768 43.52 508.416c0 225.792 182.784 408.576 408.576 408.576 34.304 0 81.408-5.12 119.296-16.896 14.336-4.608 22.016-20.48 16.896-34.816l-8.704-26.112zM453.632 243.2c17.408-0.512 31.232-15.872 31.232-33.792v-45.056c12.288 1.024 24.576 3.072 36.864 5.632 13.312 2.56 26.112 6.144 38.4 10.24l-18.944 46.08c-3.072 7.168 0 15.36 6.656 18.432 7.168 3.584 15.872 0 18.944-7.168l19.456-47.616c29.184 12.288 56.32 28.672 80.384 47.616l-35.328 38.912c-5.12 5.632-5.632 14.336 0 19.968s14.848 5.632 19.968-0.512l36.352-39.936c23.04 21.504 43.008 46.08 59.392 73.216l-48.64 25.6c-6.144 3.072-9.216 10.24-7.168 16.384 2.56 8.704 12.288 12.288 19.968 8.192l49.664-26.112c14.336 28.16 24.576 58.368 30.208 89.6L735.744 450.56c-7.68 1.024-13.312 7.68-12.8 14.848 0.512 8.192 7.68 13.824 15.872 12.8l56.32-7.68c1.536 15.872 2.048 31.744 1.536 47.616-0.512 17.92 14.336 33.28 32.256 33.28 17.408 0 31.744-13.824 32.256-30.72v-12.8c0-225.792-182.784-408.576-408.576-408.576h-32.256v112.128c0 17.92 15.36 32.256 33.28 31.744z m341.504 226.304l-2.56-17.92c1.024 6.144 1.536 11.776 2.56 17.92zM878.08 591.872l-180.736-7.68L573.44 716.8l76.8 187.392 181.248 7.68 123.392-132.608-76.8-187.392z m-164.352 22.528l118.784 5.632-76.288 73.728-117.248 2.048 74.752-81.408z m-34.816 258.048l-55.808-138.752 122.368 1.024 55.808 139.264-122.368-1.536z m104.96-147.968l75.264-75.776 51.712 126.976-74.752 77.312-52.224-128.512z" p-id="22668"></path></svg>