<?xml version="1.0" standalone="no"?><!DOCTYPE svg PUBLIC "-//W3C//DTD SVG 1.1//EN" "http://www.w3.org/Graphics/SVG/1.1/DTD/svg11.dtd"><svg t="1758780306301" class="icon" viewBox="0 0 1024 1024" version="1.1" xmlns="http://www.w3.org/2000/svg" p-id="9525" xmlns:xlink="http://www.w3.org/1999/xlink" width="200" height="200"><path d="M1020.23982307 716.25926656c-0.01164288-0.38421731-0.01164288-0.75562781-0.01164288-1.13518819-0.00582201-0.58447645-0.01164288-1.17360981-0.02677873-1.76856406l-0.30155207-11.73609358-10.97930184-4.16002617c-8.24204515-3.12613205-18.16533106-6.37917298-29.59987256-9.71604195-0.38305337-2.31345379-0.81151317-4.62225181-1.29003862-6.9194058 9.41099691-7.24075065 17.4818907-13.89935389 24.07762148-19.8617088l8.80439865-7.95795684-4.14372637-11.11901752c-4.40452779-11.81759488-10.01759517-23.49314503-16.69133426-34.70530674l-6.08460572-10.22833209-11.75239452 1.91410062c-8.65420515 1.41228942-18.88835811 3.55924992-30.52898077 6.39547278-1.49029774-1.80232875-3.02018105-3.58137173-4.58848711-5.32781397 4.57800818-11.07943197 8.23738709-20.87348224 10.93505934-29.21682034l3.64890112-11.30763378-9.15950933-7.5516177c-9.83945785-8.11513629-20.52885049-15.4350592-31.77477575-21.7467028l-10.38434759-5.82846122-9.22703872 7.52483897c-6.75756829 5.5117733-14.54320981 12.48124245-23.23700053 20.79547392-2.20750393-0.82315605-4.43945757-1.60789163-6.67956111-2.34139762-1.57412693-11.81875883-3.29262649-22.1146203-5.13337685-30.71759587l-2.48577024-11.64877256-11.74191559-1.9490304c-11.6580864-1.93622243-23.51992491-2.92005205-35.25601849-2.92587292l-0.28874524 0c-1.02341518 0.01629981-2.05265237 0.03260075-3.0527818 0.06054343l-11.70233003 0.30038813-4.17749105 10.92923733c-3.18085461 8.30957341-6.39547278 18.07568099-9.75562866 29.63945927-2.31345379 0.38305337-4.61642979 0.81733518-6.91358379 1.29003861-7.27451534-9.44359765-13.92729771-17.51449031-19.84540899-24.07762147l-7.98007866-8.84980622-11.14579626 4.18796885c-11.84088064 4.44411449-23.49896704 10.05601678-34.65640619 16.68551225l-10.22134613 6.07412679 1.89081486 11.74075164c1.4239323 8.81604267 3.56041387 19.06649543 6.37917298 30.57438834-1.79650674 1.48447573-3.56623587 3.00853817-5.31267812 4.57684423-11.14579627-4.61060893-20.77917411-8.20944441-29.23777706-10.93505934l-11.30181177-3.64307911-7.55278165 9.17231616c-8.19780153 9.95588665-15.51073849 20.65575822-21.73505992 31.79689756l-5.7900396 10.36688271 7.49689628 9.2049169c5.58978048 6.85187641 12.55226482 14.64333881 20.77917412 23.23700054-0.82897806 2.2133248-1.60789163 4.43829248-2.34256157 6.66326016-11.77335125 1.563648-22.06339072 3.2751616-30.68383232 5.11707704l-11.61384277 2.47529131-1.97930212 11.7081509c-1.93505849 11.45782727-2.92587293 23.33712953-2.94217386 35.31772587l0.01164288 1.2178523c0.00582201 0.49482525 0.01746489 0.99081557 0.01164288 1.4798188l-0.14437263 12.20763307 11.40194191 4.34398436c8.23622315 3.13661099 18.16533106 6.39547278 29.6161735 9.73234289 0.39003933 2.32509667 0.81849913 4.6327296 1.29586063 6.9298836-9.58214827 7.39793123-17.50284743 13.92613262-24.04269284 19.82212323l-8.83816334 7.96959972 4.17166905 11.14579627c4.53725753 12.11332608 10.15032377 23.79819122 16.68551225 34.73325056l6.07878485 10.17826758 11.7081509-1.88499398c8.77645597-1.41345451 18.84877255-3.5208283 30.57904526-6.39663674 1.48447573 1.80232875 3.01436018 3.57671481 4.58383019 5.32315706-4.52212167 10.9501952-8.18732259 20.73958741-10.92341647 29.20983438l-3.660544 11.30763378 9.17115222 7.56442453c9.88952235 8.15937991 20.58473699 15.47231687 31.78641977 21.74088192l10.3668827 5.80633941 9.20957383-7.50271716c6.79133298-5.52225109 14.58861739-12.49637831 23.26494322-20.79547392 2.19702499 0.81733518 4.41034979 1.59624875 6.6399744 2.33091869 1.56947001 11.76869433 3.29844736 22.08085561 5.16248462 30.75136057l2.50207004 11.60103594 11.70233003 1.95834426c11.53467165 1.93622243 23.37089422 2.91539513 35.18499613 2.92005205 0.18279424 0 0.36558848 0 0.54488974 0 0.97335069 0 1.92923648-0.02212181 2.89676629-0.04424363l11.7081509-0.30621013 4.17166905-10.94437319c3.1587328-8.27115179 6.36869405-18.0256165 9.73816377-29.61733746 2.31345379-0.38421731 4.62225181-0.81151317 6.92406272-1.29003862 7.30245803 9.47736121 13.95989731 17.55291193 19.85006592 24.08344349l7.97658567 8.83699939 11.14579626-4.18214798c11.96313145-4.48835698 23.63169678-10.10025927 34.68900694-16.67969138l10.24463189-6.09508465-1.93505849-11.76403741c-1.43441123-8.74385635-3.58137173-18.97102336-6.40129365-30.51733788 1.80232875-1.49029774 3.58137173-3.02600306 5.32781397-4.59430798 10.94553827 4.5163008 20.7174656 8.17567971 29.17141277 10.92341646l11.31927665 3.68266581 7.57490347-9.1886171c8.14773703-9.87787947 15.46765995-20.57425806 21.7630026-31.78059776l5.84010411-10.40646941-7.56326059-9.23285958c-5.62354517-6.8693413-12.59185152-14.64450275-20.77335211-23.18809999 0.81733518-2.20750393 1.60090567-4.43247161 2.33557561-6.67839601 11.71397291-1.563648 22.00750535-3.28098361 30.70711808-5.12755485l11.65692245-2.48111331 1.95368733-11.7582154c1.9571803-11.77451634 2.93518791-23.64916167 2.92005205-35.29444011L1020.23982307 716.25926656 1020.23982307 716.25926656zM984.41679303 734.27906105c-7.93699897 1.34010311-16.96960057 2.60219904-26.99767353 3.76416597l-11.96313145 1.39016875-2.96429568 11.68020821c-2.08059506 8.18615865-4.86093141 16.12897963-8.27580871 23.60957497l-5.02160497 10.98978076 8.50983253 8.5808549c7.10336398 7.15808654 13.36028615 13.77710307 18.71022193 19.76740182-1.49029774 2.29133312-3.03648199 4.54890041-4.6327296 6.76804722-7.54696078-2.80828018-16.01254969-6.23945728-25.2896529-10.25627478l-11.08525284-4.79456711-8.40970354 8.66584803c-5.84592498 6.02871922-12.20879815 11.5020709-18.89883704 16.27800918l-9.82315691 6.99741298 3.05394574 11.66856533c2.56959943 9.80569315 4.68163015 18.69275705 6.32328647 26.56804864-2.43570574 1.23997411-4.89353216 2.4194048-7.37464434 3.54877099-5.09495523-6.16261405-10.71151445-13.36494307-16.78564124-21.52432299l-7.17438634-9.64385565-11.57891414 3.24838287c-8.05342891 2.2633893-16.31875982 3.80957355-24.56196892 4.5826651l-12.03531776 1.13518819-3.18667549 11.66856534c-2.69301419 9.85575765-5.30103523 18.59961401-7.7914624 26.14075278-2.73725781-0.14553657-5.46752967-0.35161657-8.18150172-0.61125518-1.34592512-7.90905629-2.59637817-16.93001387-3.75485099-26.97555172l-1.37968981-11.99107527-11.70233003-2.96429568c-8.11513629-2.05265237-16.05097131-4.82716672-23.59327516-8.25950891l-10.96765896-4.99482624-8.57037596 8.47606784c-7.24191573 7.16274347-13.86559033 13.42548651-19.80582343 18.72069974-2.29715399-1.49611861-4.55472242-3.04230286-6.7796901-4.63855161 2.80245817-7.54696078 6.23945728-16.00090681 10.26093284-25.27801003l4.81086691-11.0899109-8.67632696-8.4155244c-6.00077653-5.8238043-11.48460601-12.19133326-16.29547407-18.92678088l-7.00905585-9.81151402-11.65692246 3.06442468c-9.87787947 2.59754211-18.75446443 4.71190187-26.54709191 6.33027242-1.23531719-2.43104768-2.41358393-4.88887523-3.54295011-7.38628836 6.12419243-5.05653362 13.32535637-10.68473571 21.53480078-16.81824198l9.63221276-7.20349298-3.2751616-11.57309326c-2.24708949-7.92069917-3.78745173-16.1743872-4.59314404-24.53286116l-1.151488-12.02483883-11.65226438-3.17619655c-9.78822827-2.66390755-18.52044174-5.26727054-26.10116608-7.77632654 0.13855061-2.74657166 0.34463175-5.48382947 0.61125518-8.19780153 7.89159139-1.32962531 16.91837099-2.58124231 26.98020978-3.74320811l12.02483882-1.39016874 2.93169494-11.74657252c1.9676581-7.88577053 4.74333753-15.81811257 8.26533091-23.57697536l4.96688242-10.96765895-8.47606784-8.55407616c-7.11849984-7.1918501-13.37542201-13.80970382-18.70323599-19.78952249 1.49029774-2.28551111 3.03648199-4.54307954 4.63738767-6.77386809 7.45847467 2.77567943 15.92406357 6.21267854 25.29547377 10.26675371l11.07477504 4.79456711 8.40970354-8.65420515c5.89016861-6.06248391 12.25187669-11.54049251 18.90931598-16.28499514l9.84411478-7.01254883-3.0853814-11.69185109c-2.5754203-9.75446357-4.68861611-18.62639275-6.31862955-26.51216214 2.44152661-1.24579613 4.90517504-2.43570574 7.38628835-3.56507192 5.10543417 6.17309184 10.72315733 13.3696 16.77399837 21.50685809l7.18020721 9.64967765 11.57309327-3.25304092c7.97658567-2.24126749 16.25821639-3.78163086 24.61203342-4.58848711l12.01319595-1.16778781 3.17037568-11.64644352c2.67555043-9.83829277 5.27774947-18.57632711 7.77516259-26.12445184 2.72561493 0.14437262 5.45705074 0.35045262 8.17567972 0.61707606 1.32962531 7.88577053 2.58706318 16.91837099 3.75950905 27.00233045l1.39016874 11.99689615 11.71280782 2.94217386c8.10931541 2.04100949 16.0346715 4.81668893 23.55368847 8.25368804l10.98046691 5.02160498 8.5808549-8.48771072c7.25821554-7.17438635 13.88305408-13.43712939 19.81746631-18.72652175 2.29715399 1.49029774 4.55472242 3.03648199 6.77386809 4.6327296-2.78732231 7.47477447-6.21849941 15.93919943-10.2667537 25.28965291l-4.79340317 11.07360996 8.66002717 8.41086748c6.03454123 5.86688285 11.50789177 12.22393401 16.26869532 18.90931598l7.0020699 9.8324719 11.6743862-3.05860267c9.85575765-2.58124231 18.74398549-4.69327303 26.56222778-6.31862955 1.24579613 2.43686969 2.43104768 4.89469611 3.55459299 7.36416654-6.18939278 5.12755485-13.38124288 10.73363627-21.50802205 16.76235549l-9.67179946 7.17438635 3.2646838 11.59637902c2.25756843 8.03130709 3.79909461 16.290816 4.57800818 24.55614691l1.12936619 12.03531776 11.66740025 3.18667549c9.79987115 2.68137131 18.55537038 5.29521437 26.16403854 7.80310528C984.89531733 728.82317426 984.68807339 731.54762525 984.41679303 734.27906105L984.41679303 734.27906105zM984.41679303 734.27906105" fill="#2c2c2c" p-id="9526"></path><path d="M806.621952 631.79198919l-0.04424363 0c-22.67581099 0-43.98706688 8.82069959-60.02290232 24.83907015-16.0346715 16.03001458-24.86584889 37.3354496-24.86119197 59.99495965-0.02328576 22.68628878 8.80439865 44.01617465 24.84372821 60.06132508 16.0346715 16.04631438 37.35291335 24.88447773 60.02406742 24.88913579l0.0500645 0c22.6583461 0 43.96611015-8.82652046 59.99495964-24.86119197 16.02884949-16.03001458 24.86119197-37.34709248 24.86584889-60.02872434C891.46762581 669.88539449 853.4021632 631.80363207 806.621952 631.79198919L806.621952 631.79198919zM841.87797049 751.99381049c-9.43311872 9.43311872-21.99120441 14.61073806-35.30026212 14.61656007-13.33117838-0.00582201-25.87296427-5.20672711-35.30608298-14.63868189-9.43311872-9.43777565-14.62238208-21.98072661-14.61073806-35.3340268 0-13.32652146 5.18926336-25.85200754 14.61073806-35.27348338 9.42846179-9.41681891 21.96326173-14.60491719 35.30608298-14.60491719l0.02794269 0 0.00582201 0c27.50879971 0.00465693 49.88887837 22.4022016 49.89470037 49.92264305C856.50035257 730.01890589 851.30643229 742.55952782 841.87797049 751.99381049L841.87797049 751.99381049zM841.87797049 751.99381049" fill="#2c2c2c" p-id="9527"></path><path d="M664.5511771 339.05211961c5.7341531 2.18538211 12.5138432 4.44411449 20.24476217 6.7459254 0.01746489 0.06752939 0.02794269 0.12807282 0.03958556 0.19443712-6.43505835 5.01694691-11.84670265 9.51578397-16.40258901 13.62690958l-8.8428214 7.96959972 4.1705051 11.14579627c3.53247118 9.42147584 7.89741341 18.50996281 12.98072576 27.01979534l6.0799488 10.17826759 11.7081509-1.88615794c6.11254955-0.98382962 13.03661227-2.40194105 20.96196835-4.29857678 0.03958557 0.04424363 0.07800832 0.08848611 0.11759389 0.13389369-3.02018105 7.43053085-5.49547235 14.13803463-7.39793124 20.02238237l-3.65937891 11.30763377 9.1653302 7.55860367c7.69715427 6.34657223 16.01254969 12.03531776 24.72729828 16.91371406l10.3668827 5.80633941 9.21073778-7.50271715c4.81086691-3.90970254 10.08861639-8.59249778 15.98926392-14.17762134 0.06170738 0.02328576 0.12225081 0.03958557 0.17697338 0.06170738 1.10724437 7.96494279 2.31927581 15.01125632 3.61513642 21.03997554l2.50207004 11.60219989 11.70233003 1.96300117c8.96623616 1.50194062 18.16998912 2.2633893 27.35860509 2.2633893 0.13855061 0.00582201 0.27244544 0.00582201 0.40633912 0.00582201 0.78473443 0 1.54618425-0.01629981 2.32509668-0.03958557l11.71397291-0.30038812 4.1705051-10.95135914c2.20284587-5.76791779 4.43363555-12.45329977 6.74708935-20.24476218 0.06752939-0.01164288 0.12690773-0.02794269 0.19443712-0.03842161 4.97736135 6.38499385 9.54954752 11.89094514 13.6490314 16.44101063l7.97658567 8.83117852 11.14463232-4.17632597c9.3050459-3.49288562 18.37606912-7.85316978 26.97555171-12.97024683l10.2504539-6.10090552-1.93505848-11.76403741c-1.00129337-6.07878485-2.44269056-13.07503389-4.3043988-20.90142493 0.0500645-0.03958557 0.09430813-0.08382919 0.14437263-0.1222508 7.41306709 3.00853817 14.10426994 5.48965149 19.98279566 7.39793123l11.31927666 3.67684381 7.57490347-9.1827951c6.33492935-7.68085447 12.03066083-16.00207075 16.92419299-24.71681934l5.84126805-10.4064694-7.55860366-9.22703872c-3.91552455-4.78292423-8.66002717-10.11190215-14.16015644-15.9287205 0.02212181-0.0663643 0.0500645-0.13389369 0.07218631-0.20025913 7.92652117-1.10724437 14.95653376-2.30763293 20.98991104-3.59301461l11.66390727-2.48111332 1.95252224-11.75705145c1.52406243-9.15485241 2.28667506-18.39236893 2.2692113-27.45873408l-0.005822-0.42846094c-0.00582201-0.26196651-0.00582201-0.51694706-0.01164288-0.77891357 0-0.46688256-0.00582201-0.93958599-0.02212182-1.41811142l-0.30621013-11.73027272-10.97348096-4.16002616c-5.73531705-2.17490318-12.50918627-4.4266496-20.22846237-6.7296256-0.01164288-0.06170738-0.02328576-0.12225081-0.03376469-0.1897802 6.34075136-4.93893973 11.84670265-9.51578397 16.43518863-13.6653312l8.80556373-7.95329991-4.14489031-11.11785359c-3.42535623-9.19327403-7.7914624-18.27593899-12.98072576-26.99767352l-6.08926265-10.23415296-11.74657252 1.91293667c-6.12419243 1.00129337-13.03079026 2.4194048-20.91888867 4.29974187-0.03842162-0.04424363-0.07684323-0.0896512-0.11642994-0.13389369 3.05278179-7.51436003 5.49547235-14.13221376 7.40142421-20.03402525l3.64307911-11.30181176-9.15368732-7.55278166c-7.64708978-6.31280754-15.96248519-12.00271815-24.71216242-16.91371406l-10.38318364-5.82846122-9.22820267 7.52483896c-4.70491591 3.83751623-10.05019477 8.58667577-15.96132125 14.17063538-0.06752939-0.02212181-0.1397157-0.04424363-0.211902-0.07218631-1.10724437-7.98124259-2.30763293-15.01125632-3.58719261-21.00621085l-2.48693419-11.6406215-11.74657251-1.95252224c-9.06520121-1.50776263-18.29340387-2.27503218-27.42031246-2.27969024l-0.29456612 0.00465692c-0.79055645 0.01164288-1.58460587 0.02794269-2.35769742 0.04540757l-11.69068715 0.30621013-4.18331192 10.92341647c-2.2133248 5.79003961-4.44877141 12.48590051-6.7633903 20.27270599-0.06170738 0.01047893-0.11759389 0.02212181-0.17697337 0.03376469-4.96222549-6.36869405-9.53324771-11.86882333-13.65485227-16.43518862l-7.97658566-8.84282141-11.14579627 4.18796886c-9.20957383 3.45329891-18.27593899 7.81940509-26.94760903 12.97024682l-10.22134614 6.07296285 1.89081486 11.74075165c0.98382962 6.12884935 2.4194048 13.14722019 4.28809899 20.96196835-0.04424363 0.03376469-0.08266525 0.07218631-0.12690773 0.10595101-7.53648185-3.06442467-14.15549952-5.50595129-20.04566812-7.40258816l-11.3064687-3.64307912-7.55278165 9.16649529c-6.37451491 7.74721877-12.06326158 16.06843619-16.90789319 24.73312029l-5.79003961 10.3668827 7.50271715 9.2049169c3.88175986 4.76662443 8.62626247 10.11190215 14.16015645 15.9683072-0.02328576 0.06170738-0.04424363 0.12807282-0.06752939 0.19443712-7.95912078 1.1014235-14.98913451 2.302976-20.98409017 3.58253568l-11.61384277 2.47412736-1.97930212 11.7081509c-1.50776263 8.90452878-2.27503218 18.14786731-2.29133312 27.47503502l0.01047894 0.94074994c0.00582201 0.35045262 0.01164288 0.70090525 0.005822 1.05135787l-0.15019349 12.21345507L664.5511771 339.05211961 664.5511771 339.05211961zM705.60887808 308.55108267l12.03066083-1.38434674 2.93053099-11.75239452c1.42975431-5.72833109 3.44864199-11.5020709 6.00659855-17.15239482l4.97270442-10.96183808-8.47490389-8.55407616c-4.12160455-4.16584818-7.85899179-8.07089379-11.18072491-11.69068714 4.57218617 1.77322098 9.58331221 3.84333824 15.0065994 6.18939278l11.07360995 4.79456711 8.40970354-8.65420515c4.28926293-4.41617067 8.92199253-8.40388153 13.75963933-11.85252352l9.84411477-7.01371392-3.08538141-11.69068715c-1.49611861-5.65614592-2.78150144-10.91759445-3.84915911-15.73428338 3.08072448 3.83751623 6.3838299 8.12561522 9.89417927 12.84217401l7.18020722 9.64967766 11.57309326-3.25304093c5.81216142-1.62884835 11.83622371-2.75355762 17.92082944-3.34269099l12.01901796-1.16196693 3.17037568-11.65226439c1.54618425-5.67826659 3.05394574-10.86752995 4.52212167-15.52820338 0.74514887 4.85045362 1.46235506 10.21203229 2.13531762 16.04049238l1.39016875 11.99689614 11.71862982 2.94799474c5.90064754 1.47981881 11.66390727 3.49870649 17.130273 6.00194048l10.97930183 5.01694691 8.58201885-8.48771072c4.19379086-4.14954723 8.10349341-7.88693447 11.7081509-11.19003989-1.77438606 4.57218617-3.84333824 9.57749134-6.18589981 14.99379143l-4.79340317 11.07360995 8.66002717 8.40970354c4.38822798 4.26597717 8.37011683 8.89404985 11.83505977 13.75963932l6.99741298 9.82781498 11.67322226-3.05860267c5.69689543-1.49029774 10.95135915-2.77567943 15.73544732-3.83751623-3.83285931 3.08072448-8.10349341 6.3675301-12.79793152 9.84993564l-9.67179947 7.18020722 3.26468381 11.59637902c1.64049123 5.8342821 2.75821454 11.84670265 3.32522723 17.86494294l1.1351882 12.04113976 11.66390727 3.18667549c5.67244573 1.55200512 10.86752995 3.07024555 15.56196807 4.54424348-4.87257429 0.75096974-10.22833209 1.46817593-16.0346715 2.14113849l-11.96895346 1.39016875-2.95847367 11.68020821c-1.51241955 5.95653405-3.53712811 11.73609358-6.0240623 17.1803375l-5.01694691 10.99560277 8.50401053 8.57619683c4.10996167 4.14372637 7.84269198 8.04294997 11.16908202 11.66274333-4.60012999-1.78486386-9.60543403-3.84915911-14.9833125-6.17891385l-11.08525283-4.79456711-8.40970354 8.66468409c-4.25433429 4.38822798-8.88240697 8.37011683-13.74916039 11.84088064l-9.82315691 7.0020699 3.05394575 11.66274332c1.48447573 5.67360967 2.76985742 10.92923733 3.83751622 15.74010425-3.07141063-3.8270373-6.36869405-8.10931541-9.87787946-12.82005333l-7.17438635-9.64502073-11.57891413 3.25420487c-5.86222592 1.64631325-11.87464533 2.76403655-17.87658582 3.33104811l-12.03531776 1.13518819-3.18667548 11.66856534c-1.55782713 5.70038841-3.07606755 10.90129465-4.53842261 15.56778894-0.75562781-4.85860352-1.46817593-10.21668921-2.13531762-16.0346715l-1.37968981-11.99689614-11.7081509-2.95963762c-5.90064754-1.49029774-11.68020821-3.51500629-17.1698597-6.01241942l-10.96765895-4.99482624-8.57037597 8.47606784c-4.19379086 4.14838329-8.10349341 7.89159139-11.7139729 11.20168278 1.79068587-4.60827989 3.85498112-9.61591296 6.19055673-14.99961344l4.81086691-11.08525284-8.67050496-8.41552441c-4.37192818-4.24385536-8.36545991-8.88240697-11.85834552-13.77710307l-7.01254884-9.81035008-11.6580864 3.06442467c-5.70038841 1.49611861-10.95135915 2.78150144-15.72380444 3.84333824 3.80957355-3.06442467 8.10349341-6.37917298 12.842174-9.92212195l9.63221277-7.19650816-3.2751616-11.5684352c-1.63467037-5.76791779-2.75821454-11.77451634-3.34269099-17.85330006l-1.15032405-12.02483882-11.65226439-3.17619656c-5.67360967-1.54618425-10.8686939-3.05860267-15.55614606-4.53842261C694.41301618 309.94125027 699.77459485 309.22404523 705.60887808 308.55108267L705.60887808 308.55108267zM705.60887808 308.55108267" fill="#2c2c2c" p-id="9528"></path><path d="M819.45830514 389.1412571l0.03958556 0c18.30970368 0 35.52264192-7.13596473 48.47076693-20.08874667 12.95394702-12.95278194 20.08991061-30.17270613 20.09456868-48.49871075-0.00465693-37.81979591-30.76766151-68.58862137-68.56533561-68.58862137l-0.02794268 0c-18.32018261 0-35.53894173 7.12548579-48.49288875 20.06662486-12.95860395 12.94812501-20.09456867 30.16688526-20.08874666 48.47076693-0.01746489 18.32600462 7.11267897 35.56222862 20.07710378 48.52665344C783.91936341 381.99365063 801.14394453 389.13543623 819.45830514 389.1412571L819.45830514 389.1412571zM795.69271467 296.76492345c6.34657223-6.34075136 14.78887538-9.83363584 23.77723335-9.83363584l0.01746489 0 0.01164288 0c18.52044174 0 33.59340544 15.08344263 33.59806236 33.61552725-0.00582201 8.98253597-3.5045285 17.43066112-9.85575765 23.78189028-6.34540829 6.34657223-14.7772325 9.83945785-23.74812672 9.83945785l-0.02328576 0c-8.97671509 0-17.42484025-3.5045285-23.77723335-9.86157966-6.35122915-6.35122915-9.84411477-14.79935431-9.83829277-23.79353316C785.8544219 311.54332103 789.34730638 303.10567481 795.69271467 296.76492345L795.69271467 296.76492345zM795.69271467 296.76492345" fill="#2c2c2c" p-id="9529"></path><path d="M541.71921294 591.7076389c4.99366115-6.18939278 9.74398578-12.63143709 14.21604295-19.28305437 21.29612117 3.72574435 39.8445056 6.28952178 55.26209992 7.6191471l11.81293795 1.02341518 5.31617109-10.58926364c8.87658496-17.67632782 16.24540843-36.38538467 21.89107542-55.60673167l3.36015587-11.42988459-9.40517489-7.30828003c-12.35200569-9.59728413-27.65899321-20.32859136-45.60078052-31.99715669 1.24463104-7.9311781 2.1469605-15.90077781 2.68602823-23.85407659 20.37283499-7.46429554 37.68706617-14.50478819 51.59689899-20.97361123l10.79534364-5.02160498-0.71720618-11.88046621c-1.10724437-18.39236893-3.7269083-36.67995079-7.78214856-54.35627861l-0.07684323-0.32833081c-0.1397157-0.55653262-0.27244544-1.10724437-0.40633913-1.66261305-0.2456667-1.00711538-0.49016832-2.01306567-0.75213483-3.02600306l-2.94683079-11.3122907-11.57425721-1.60206962c-15.36054499-2.12483869-33.97180075-3.76532992-55.45653817-4.8946961-2.86416555-7.49223822-6.06248391-14.84941881-9.5670124-22.01914824 13.8714112-16.57374037 25.36766009-31.34631595 34.25588906-44.01617464l6.8355766-9.74980665-6.56895317-9.93376484c-10.95135915-16.56326144-23.48848811-32.26378013-37.26442723-46.67426019l-8.2036224-8.57619684-11.00142365 4.4604143c-14.43842275 5.85058304-31.42432313 13.74916039-50.59444167 23.52108885-6.20802162-5.02276893-12.65472285-9.77309241-19.28421945-14.22186383 3.73273031-21.20763392 6.30000071-39.75019747 7.65291179-55.23415722l1.0280721-11.81875883-10.60672739-5.32781397c-17.77529287-8.92665059-36.50297856-16.29663801-55.65097529-21.9027183l-11.4019419-3.33687011-7.30245803 9.37141134c-9.43777565 12.10750407-20.17257586 27.42497053-31.98551381 45.62406628-7.92535609-1.26209593-15.89961273-2.16908117-23.8761984-2.70815005-7.46429554-20.40077767-14.50478819-37.71966691-20.98991104-51.60272099l-5.02276892-10.7627429-11.85834554 0.70672725c-18.27011811 1.09560149-36.55653603 3.70944455-54.35395072 7.78098347l-0.16882232 0.03958557c-1.51241955 0.3620955-3.05278179 0.73932686-4.62807268 1.12936618l-11.47878514 2.83040086-1.64631324 11.7139729c-2.13531762 15.23363613-3.78395875 33.86584974-4.90633899 55.50660267-7.48641735 2.86416555-14.83311901 6.05084103-21.99120441 9.54954752-16.58072633-13.86559033-31.36261575-25.36183922-44.04411733-34.23842418l-9.73699982-6.81345479-9.91746503 6.54100935c-16.56326144 10.92923733-32.26960213 23.47102435-46.68590308 37.2853851l-8.54825415 8.19314461 4.43247161 10.97348096c5.76209579 14.28822926 13.66649515 31.26830763 23.52574578 50.60142762-5.01578297 6.21267854-9.76610645 12.65937977-14.21487787 19.28887638-21.25187755-3.72108743-39.7944411-6.28486485-55.24580011-7.64243286l-11.81293795-1.03971498-5.33363599 10.59508451c-8.8928859 17.65886293-16.25705131 36.37956267-21.90155434 55.64049636l-3.33687012 11.39611989 9.36558934 7.30245803c12.08538226 9.42147584 27.3970267 20.16093298 45.62406627 32.00181361-1.25161699 7.90905629-2.15860338 15.88447687-2.70931513 23.8598986-20.17141191 7.38628835-37.4914651 14.42794382-51.59573504 20.99573305l-10.78486471 5.02160498 0.71138418 11.8804662c1.10025842 18.27011811 3.71410147 36.53557931 7.78098347 54.28292836 0.19909405 0.92328619 0.42846094 1.83492949 0.65666275 2.75355761 0.14320867 0.56701155 0.28874525 1.13984512 0.41681807 1.72315648l2.63479978 11.83622372 12.00853902 1.67425593c15.21267939 2.13065955 33.83907101 3.7769728 55.49495979 4.90517504 2.84320882 7.42470997 6.03570517 14.7667547 9.56701241 21.99120441-13.94941952 16.67969138-25.43402553 31.45808782-34.2163035 44.02665358l-6.79133298 9.71720704 6.52005262 9.90582215c10.9001307 16.56791837 23.43143765 32.29754482 37.24696348 46.74644651l8.19896548 8.57037596 10.99443769-4.44877141c14.28240725-5.78538155 31.2636507-13.68279495 50.59560562-23.53273173 6.19637874 5.00646912 12.63609401 9.76144953 19.28305436 14.2335067-3.78163086 21.65239467-6.29534379 39.8049189-7.65291179 55.2295003l-1.04437304 11.83505977 10.62302834 5.32781397c17.73104925 8.89987186 36.44709205 16.25705131 55.62186752 21.87477561l11.3763271 3.33104811 7.30595101-9.33298859c9.50646898-12.14126877 20.0410112-27.14204615 32.03674226-45.64618809 7.87645554 1.24579613 15.84489131 2.14812445 23.84825571 2.69767112 7.4875813 20.42872149 14.54553771 37.75925248 21.03531862 51.6248428l5.02742584 10.74527915 11.84553757-0.70090525c18.21539555-1.09094457 36.48551367-3.70478649 54.36210062-7.78098346 1.6451493-0.38421731 3.26468381-0.79055645 4.90983197-1.21319538l11.378655-2.90258716 1.60789163-11.63480064c2.14113849-15.45601707 3.78861568-34.06610887 4.91216099-55.45770212 7.46313159-2.86416555 14.80517632-6.05666304 21.97956153-9.56002645 16.6366117 13.92031175 31.41384533 25.40608285 44.02665359 34.22678129l9.71720704 6.79598991 9.91164416-6.51888754c16.60750507-10.92923733 32.33014557-23.46985927 46.74178958-37.2853851l8.54825415-8.19314461-4.43829248-10.97930183C559.38273394 627.84270109 551.49114141 610.86844245 541.71921294 591.7076389L541.71921294 591.7076389zM532.61442617 544.02626446c-7.34204473 12.02483883-15.71798357 23.37671623-24.88913579 33.74359893l-7.99172153 9.0267796 5.60142336 10.67309283c9.17697309 17.50866944 16.81242112 33.20918813 22.79107584 46.84075463-7.39676615 6.52936647-15.12186425 12.69780139-23.11474972 18.4377765-11.83622371-8.80556373-25.43402553-19.76157981-40.56171065-32.69224106l-9.15485241-7.82639104-10.56830578 5.76209578c-12.23674083 6.66326016-25.1674021 12.29262734-38.43803704 16.72393387l-11.42289864 3.81539441-0.5076332 12.03531776c-0.82315605 19.71151531-2.06313131 37.12587662-3.69314362 51.95899563-9.66015659 1.94670137-19.43790592 3.4148773-29.23777706 4.39870692-5.82962517-13.49301589-12.12962589-29.76636701-18.79405113-48.57206101l-4.02031047-11.34023339-12.03531776-0.29456612c-14.07167033-0.33880974-28.08279723-1.92341561-41.64683435-4.71073792l-11.81875883-2.42522681-6.45601621 10.18408846c-10.74062222 16.93001387-20.50789262 31.38473757-29.15045489 43.14877498-9.36093241-3.15407474-18.56584931-6.76804722-27.5309204-10.81746546 1.71384263-14.57231645 4.41151374-31.84230514 8.04178603-51.52471382l2.18188914-11.82458083-10.25627477-6.26856505c-11.99107527-7.33040185-23.33829461-15.70517561-33.73312-24.89495666l-9.01513672-7.98007865-10.66727082 5.5781376c-17.64256313 9.22238066-33.35356075 16.86947157-46.87568328 22.80970468-6.53518848-7.40840903-12.69780139-15.139328-18.43195448-23.1205706 8.78227797-11.80827989 19.73363712-25.40026083 32.68641906-40.56753265l7.80892728-9.1490304-5.7504529-10.56132096c-6.75174741-12.40789219-12.36364971-25.32807453-16.68085533-38.39845035l-3.79327374-11.47994909-12.07956139-0.50646812c-19.90013155-0.82897806-37.31914979-2.06313131-51.97529543-3.6710218-1.94553742-9.64385565-3.42535623-19.42742699-4.41151374-29.26106282 13.66067427-5.89482553 29.93519047-12.19133326 48.5499392-18.78240825l11.3623552-4.02147556 0.28525227-12.04696064c0.33298887-13.93777664 1.92341561-27.94773845 4.73169464-41.65265521l2.4194048-11.8082799-10.17128163-6.46300217c-16.8322139-10.68939264-31.29741539-20.46248505-43.16041785-29.16093383 3.16571875-9.38305422 6.7796901-18.57632711 10.82328633-27.51345664 14.75511069 1.72315648 32.02393543 4.42082873 51.52937074 8.0476069l11.86882332 2.20750393 6.26739997-10.31099733c7.25355861-11.93053184 15.61901853-23.27658723 24.86235704-33.72729914l7.98240655-9.02677958-5.58978048-10.66727083c-9.23751651-17.63674112-16.88460629-33.34308181-22.8143616-46.85239751 7.39094528-6.53518848 15.11138531-12.70362339 23.08564195-18.44825544 11.89211022 8.85446429 25.50038983 19.8116443 40.59664043 32.70854088l9.16067328 7.82522709 10.57645682-5.77839673c12.14825472-6.64113949 25.06843705-12.25187669 38.4054363-16.67969138l11.46248533-3.80375154 0.49482525-12.06908245c0.81849913-19.88965262 2.04100949-37.30284885 3.660544-51.96365255 9.64967765-1.94670137 19.43790592-3.42069931 29.26106283-4.40452778 5.82147527 13.50465877 12.11216099 29.78383189 18.76494336 48.56507505l4.03195334 11.39029903 12.07606842 0.25614449c13.88771101 0.30038813 27.88137415 1.88615794 41.60026168 4.71655879l11.82458084 2.44152662 6.47464505-10.20038941c10.66144995-16.81358507 20.42872149-31.27995051 29.13764807-43.16507477 9.36093241 3.1587328 18.57167019 6.7796901 27.5530422 10.84540814-1.72199253 14.7667547-4.4266496 32.01927851-8.06972871 51.48047019l-2.22380373 11.89094513 10.34592597 6.27322198c11.91888896 7.23027171 23.24864341 15.58991075 33.67606955 24.84489216l9.02794354 8.00336441 10.69055772-5.59560249c17.52962617-9.17697309 33.24178773-16.824064 46.88499712-22.8143616 6.52470955 7.39210923 12.68615851 15.11138531 18.4377765 23.09262791-8.85446429 11.88512427-19.82212323 25.48409003-32.72018375 40.57335353l-7.84851285 9.17115221 5.8005174 10.59042759c6.65860323 12.15291165 12.26934158 25.07309397 16.67969138 38.39845035l3.79909461 11.46248533 12.06908245 0.50646813c19.79418055 0.82781411 37.22018475 2.05847325 51.99159524 3.67567985 1.94087936 9.60543403 3.41022037 19.3831845 4.39870692 29.24476303-13.53725838 5.82846123-29.82225351 12.12962589-48.59301775 18.79870805l-11.35769827 4.03195335-0.26662344 12.04696064c-0.31668793 13.84346851-1.89081486 27.85925234-4.68279523 41.65265522l-2.39146211 11.78615922 10.15032376 6.44670123c16.62380487 10.55549895 31.07852743 20.33324829 43.12548921 29.17141276-3.16455367 9.37723221-6.77852615 18.57050624-10.82328633 27.5204426-14.72251107-1.71384263-31.97503488-4.40452779-51.49560604-8.03596402l-11.84088064-2.20401096L532.61442617 544.02626446 532.61442617 544.02626446zM532.61442617 544.02626446" fill="#2c2c2c" p-id="9530"></path><path d="M287.73290439 228.04357234c-51.77969437 11.83040171-95.85757639 43.12083115-124.10570297 88.11617849-28.24346965 44.98370333-37.27374222 98.27698119-25.4398464 150.0578395 11.83040171 51.7750363 43.1196672 95.84709746 88.11035648 124.09406009 32.08680789 20.14579712 68.38836224 30.51850183 105.36288029 30.51850183 14.87154062 0 29.85718215-1.68007794 44.71009394-5.07749035 106.87064291-24.44437504 173.95732366-131.28707413 149.54089244-238.17285291C501.47535531 270.70334293 394.62683307 203.61666219 287.73290439 228.04357234L287.73290439 228.04357234zM368.57456754 581.66326613c-42.6760704 9.75562866-86.59793693 2.31345379-123.67957106-20.96895431-37.08046905-23.27542215-62.86960413-59.59444253-72.61941077-102.26469205l0-0.00465692c-9.75562866-42.6760704-2.30996082-86.59677298 20.97244728-123.67258511 23.27658723-37.08046905 59.59909945-62.87076807 102.27633494-72.61475385 12.24256285-2.79780125 24.47348167-4.13790435 36.5297573-4.13790435 74.71747072 0 142.42821347 51.53053469 159.76922453 127.37038563C511.94702507 473.45834098 456.65698133 561.51746901 368.57456754 581.66326613L368.57456754 581.66326613zM368.57456754 581.66326613" fill="#2c2c2c" p-id="9531"></path></svg>